<?xml version="1.0" standalone="no"?>
<!DOCTYPE svg PUBLIC "-//W3C//DTD SVG 20010904//EN"
 "http://www.w3.org/TR/2001/REC-SVG-20010904/DTD/svg10.dtd">
<svg version="1.0" xmlns="http://www.w3.org/2000/svg"
 width="339.000000pt" height="339.000000pt" viewBox="0 0 339.000000 339.000000"
 preserveAspectRatio="xMidYMid meet">
<metadata>
Created by potrace 1.11, written by Peter Selinger 2001-2013
</metadata>
<g transform="translate(0.000000,339.000000) scale(0.100000,-0.100000)"
fill="#000000" stroke="none">
<path d="M0 1695 l0 -1695 1695 0 1695 0 0 1695 0 1695 -1695 0 -1695 0 0
-1695z m2113 725 c81 -12 129 -35 179 -85 69 -70 98 -167 98 -337 l0 -88 -104
0 c-85 0 -105 3 -110 16 -3 9 -6 61 -6 115 0 141 -24 179 -115 179 -53 0 -83
-17 -104 -57 -15 -30 -16 -952 0 -986 15 -32 60 -57 104 -57 40 0 90 24 102
49 4 9 10 81 13 161 l5 145 108 3 107 3 0 -100 c0 -197 -28 -309 -96 -376 -47
-47 -99 -72 -177 -85 -135 -21 -267 21 -333 109 -67 87 -68 95 -72 606 -3 470
1 548 35 616 46 94 129 153 235 169 29 4 55 8 58 9 3 0 36 -4 73 -9z m-1353
-115 l0 -105 -190 0 -190 0 0 -210 0 -210 150 0 150 0 0 -100 0 -100 -150 0
-150 0 0 -325 0 -325 -115 0 -115 0 0 740 0 740 305 0 305 0 0 -105z m330 93
c0 -7 1 -278 2 -603 3 -653 2 -638 68 -665 38 -16 115 -8 139 14 39 35 41 73
41 680 l0 586 105 0 106 0 -3 -627 c-3 -601 -4 -630 -23 -677 -25 -61 -86
-131 -136 -156 -55 -29 -160 -41 -242 -30 -150 22 -232 101 -266 258 -7 36
-11 241 -11 642 l0 590 110 0 c81 0 110 -3 110 -12z m1672 -299 l3 -312 146
309 146 309 112 3 c61 1 111 0 111 -3 0 -2 -61 -125 -136 -271 l-137 -266 72
-236 c39 -131 103 -340 141 -467 38 -126 70 -231 70 -232 0 -2 -52 -3 -115 -3
-99 0 -116 2 -124 18 -5 9 -50 156 -100 326 -50 170 -93 311 -95 314 -3 2 -25
-37 -50 -87 l-46 -91 0 -240 0 -240 -115 0 -115 0 0 740 0 740 115 0 115 0 2
-311z"/>
</g>
</svg>
